<?xml version="1.0" encoding="utf-8"?>
<!-- Generator: Adobe Illustrator 18.1.1, SVG Export Plug-In . SVG Version: 6.00 Build 0)  -->
<svg version="1.1" id="Layer_1" xmlns="http://www.w3.org/2000/svg" xmlns:xlink="http://www.w3.org/1999/xlink" x="0px" y="0px"
	 viewBox="-501 332 20 20" enable-background="new -501 332 20 20" xml:space="preserve">
<path fill="#444444" d="M-482.2,344.4l-2.4-2.4l2.4-2.4c0.4-0.4,0.1-0.7-0.3-1.1c-0.4-0.4-0.7-0.7-1.1-0.3l-2.4,2.4l-2.4-2.4
	c-0.4-0.4-0.7-0.1-1.1,0.3c-0.4,0.4-0.7,0.7-0.3,1.1l2.4,2.4l-2.4,2.4c-0.4,0.4-0.1,0.7,0.3,1.1c0.4,0.4,0.7,0.7,1.1,0.3l2.4-2.4
	l2.4,2.4c0.4,0.4,0.7,0.1,1.1-0.3C-482,345.1-481.8,344.8-482.2,344.4z M-493.6,341h-6.8c-0.6,0-0.6,0.4-0.6,1s0,1,0.6,1h6.8
	c0.6,0,0.6-0.4,0.6-1S-493,341-493.6,341z M-493.6,346h-6.8c-0.6,0-0.6,0.4-0.6,1s0,1,0.6,1h6.8c0.6,0,0.6-0.4,0.6-1
	S-493,346-493.6,346z M-493.6,336h-6.8c-0.6,0-0.6,0.4-0.6,1s0,1,0.6,1h6.8c0.6,0,0.6-0.4,0.6-1S-493,336-493.6,336z"/>
</svg>
